<?xml version="1.0" encoding="UTF-8" standalone="no"?>
<svg
   xmlns:dc="http://purl.org/dc/elements/1.1/"
   xmlns:cc="http://creativecommons.org/ns#"
   xmlns:rdf="http://www.w3.org/1999/02/22-rdf-syntax-ns#"
   xmlns:svg="http://www.w3.org/2000/svg"
   xmlns="http://www.w3.org/2000/svg"
   viewBox="0 0 1488.75 1052.5"
   height="1052.5"
   width="1488.75"
   xml:space="preserve"
   version="1.1"
   id="svg2"><metadata
     id="metadata8"><rdf:RDF><cc:Work
         rdf:about=""><dc:format>image/svg+xml</dc:format><dc:type
           rdf:resource="http://purl.org/dc/dcmitype/StillImage" /><dc:title></dc:title></cc:Work></rdf:RDF></metadata><defs
     id="defs6"><clipPath
       id="clipPath26"
       clipPathUnits="userSpaceOnUse"><path
         style="clip-rule:evenodd"
         id="path28"
         d="m 402,402 19046,0 0,13229 -19046,0 0,-13229 z" /></clipPath><clipPath
       id="clipPath44"
       clipPathUnits="userSpaceOnUse"><path
         style="clip-rule:evenodd"
         id="path46"
         d="m 402,402 19046,0 0,13229 -19046,0 0,-13229 z" /></clipPath><clipPath
       id="clipPath50"
       clipPathUnits="userSpaceOnUse"><path
         style="clip-rule:evenodd"
         id="path52"
         d="m 3468,4738 12913,0 0,4319 -12913,0 0,-4319 z" /></clipPath></defs><g
     transform="matrix(1.25,0,0,-1.25,0,1052.5)"
     id="g10"><g
       transform="matrix(0.06,0,0,-0.06,0,842)"
       id="g12"><g
         id="g14"><g
           id="g16" /></g><g
         id="g18"><g
           id="g20" /></g><g
         id="g22"><g
           clip-path="url(#clipPath26)"
           id="g24"><g
             id="g30" /><g
             id="g32"><g
               transform="translate(402,402)"
               id="g34"><text
                 id="text36"
                 style="font-variant:normal;font-weight:normal;font-size:167.02999878px;font-family:'Liberation Sans';-inkscape-font-specification:LiberationSans;writing-mode:lr-tb;fill:#000000;fill-opacity:1;fill-rule:nonzero;stroke:none"
                 transform="translate(0,13182)"><tspan
                   id="tspan38"
                   y="0"
                   x="0 93 139 232 278 371 464 510 603 649 742 835 872 983 1122 1214 1260 1358 1451 1497 1590 1683 1775 1821 1914 2007 2146 2239 2285 2369 2462 2499 2555 2601 2694 2787 2871 2917 3010 3103 3196 3242 3326 3410 3466 3512 3605 3698 3791 3837 3921 4005 4052 4098 4191 4247">8/4/15 4:39 AM f=3.00 /home/yair/dev/eegfckr/eggfckr.brd</tspan></text>
</g></g></g></g><g
         id="g40"><g
           clip-path="url(#clipPath44)"
           id="g42"><g
             clip-path="url(#clipPath50)"
             id="g48"><g
               id="g54" /><path
               d="m 9948,7167 540,0 0,180 -540,0 0,-180 z"
               style="fill:#000000;fill-opacity:1;fill-rule:nonzero;stroke:#000000;stroke-width:13.33333397;stroke-linecap:round;stroke-linejoin:round;stroke-miterlimit:10;stroke-dasharray:none;stroke-opacity:1"
               id="path58" /><path
               d="m 9948,7527 540,0 0,180 -540,0 0,-180 z"
               style="fill:#000000;fill-opacity:1;fill-rule:nonzero;stroke:#000000;stroke-width:13.33333397;stroke-linecap:round;stroke-linejoin:round;stroke-miterlimit:10;stroke-dasharray:none;stroke-opacity:1"
               id="path60" /><path
               d="m 8418,7527 450,0 0,180 -450,0 0,-180 z"
               style="fill:#000000;fill-opacity:1;fill-rule:nonzero;stroke:#000000;stroke-width:13.33333397;stroke-linecap:round;stroke-linejoin:round;stroke-miterlimit:10;stroke-dasharray:none;stroke-opacity:1"
               id="path62" /><path
               d="m 8418,7886 450,0 0,180 -450,0 0,-180 z"
               style="fill:#000000;fill-opacity:1;fill-rule:nonzero;stroke:#000000;stroke-width:13.33333397;stroke-linecap:round;stroke-linejoin:round;stroke-miterlimit:10;stroke-dasharray:none;stroke-opacity:1"
               id="path64" /><path
               d="m 8418,8246 450,0 0,180 -450,0 0,-180 z"
               style="fill:#000000;fill-opacity:1;fill-rule:nonzero;stroke:#000000;stroke-width:13.33333397;stroke-linecap:round;stroke-linejoin:round;stroke-miterlimit:10;stroke-dasharray:none;stroke-opacity:1"
               id="path66" /><path
               d="m 9498,5817 c 0,49.7056 -40.2944,90 -90,90 -49.7056,0 -90,-40.2944 -90,-90 0,-49.7056 40.2944,-90 90,-90 49.7056,0 90,40.2944 90,90 z"
               style="fill:none;stroke:#000000;stroke-width:180;stroke-linecap:round;stroke-linejoin:round;stroke-miterlimit:10;stroke-dasharray:none;stroke-opacity:1"
               id="path68" /><path
               d="m 9858,6537 c 0,49.7056 -40.2944,90 -90,90 -49.7056,0 -90,-40.2944 -90,-90 0,-49.7056 40.2944,-90 90,-90 49.7056,0 90,40.2944 90,90 z"
               style="fill:none;stroke:#000000;stroke-width:180;stroke-linecap:round;stroke-linejoin:round;stroke-miterlimit:10;stroke-dasharray:none;stroke-opacity:1"
               id="path70" /><path
               d="m 4279,6987 c 0,49.7056 -40.2944,90 -90,90 -49.7056,0 -90,-40.2944 -90,-90 0,-49.7056 40.2944,-90 90,-90 49.7056,0 90,40.2944 90,90 z"
               style="fill:none;stroke:#000000;stroke-width:180;stroke-linecap:round;stroke-linejoin:round;stroke-miterlimit:10;stroke-dasharray:none;stroke-opacity:1"
               id="path72" /><path
               d="m 4279,7886 c 0,49.7056 -40.2944,90 -90,90 -49.7056,0 -90,-40.2944 -90,-90 0,-49.7056 40.2944,-90 90,-90 49.7056,0 90,40.2944 90,90 z"
               style="fill:none;stroke:#000000;stroke-width:180;stroke-linecap:round;stroke-linejoin:round;stroke-miterlimit:10;stroke-dasharray:none;stroke-opacity:1"
               id="path74" /><path
               d="m 4369,7886 c 0,99.4112 -80.5888,180 -180,180 -99.4113,0 -180,-80.5888 -180,-180 0,-99.4113 80.5887,-180 180,-180 99.4112,0 180,80.5887 180,180 z"
               style="fill:none;stroke:#000000;stroke-width:180;stroke-linecap:round;stroke-linejoin:round;stroke-miterlimit:10;stroke-dasharray:none;stroke-opacity:1"
               id="path76" /><path
               d="m 4369,6987 c 0,99.4112 -80.5888,180 -180,180 -99.4113,0 -180,-80.5888 -180,-180 0,-99.4113 80.5887,-180 180,-180 99.4112,0 180,80.5887 180,180 z"
               style="fill:none;stroke:#000000;stroke-width:180;stroke-linecap:round;stroke-linejoin:round;stroke-miterlimit:10;stroke-dasharray:none;stroke-opacity:1"
               id="path78" /><path
               d="m 6349,7617 c 0,49.7056 -40.2944,90 -90,90 -49.7056,0 -90,-40.2944 -90,-90 0,-49.7056 40.2944,-90 90,-90 49.7056,0 90,40.2944 90,90 z"
               style="fill:none;stroke:#000000;stroke-width:180;stroke-linecap:round;stroke-linejoin:round;stroke-miterlimit:10;stroke-dasharray:none;stroke-opacity:1"
               id="path80" /><path
               d="m 7698,7617 c 0,49.7056 -40.2944,90 -90,90 -49.7056,0 -90,-40.2944 -90,-90 0,-49.7056 40.2944,-90 90,-90 49.7056,0 90,40.2944 90,90 z"
               style="fill:none;stroke:#000000;stroke-width:180;stroke-linecap:round;stroke-linejoin:round;stroke-miterlimit:10;stroke-dasharray:none;stroke-opacity:1"
               id="path82" /><path
               d="m 7788,7617 c 0,99.4112 -80.5888,180 -180,180 -99.4113,0 -180,-80.5888 -180,-180 0,-99.4113 80.5887,-180 180,-180 99.4112,0 180,80.5887 180,180 z"
               style="fill:none;stroke:#000000;stroke-width:180;stroke-linecap:round;stroke-linejoin:round;stroke-miterlimit:10;stroke-dasharray:none;stroke-opacity:1"
               id="path84" /><path
               d="m 6460,7617 c 0,111.0092 -89.9908,201 -201,201 -111.0092,0 -201,-89.9908 -201,-201 0,-111.0092 89.9908,-201 201,-201 111.0092,0 201,89.9908 201,201 z"
               style="fill:none;stroke:#000000;stroke-width:180;stroke-linecap:round;stroke-linejoin:round;stroke-miterlimit:10;stroke-dasharray:none;stroke-opacity:1"
               id="path86" /><path
               d="m 9138,6537 c 0,49.7056 -40.2944,90 -90,90 -49.7056,0 -90,-40.2944 -90,-90 0,-49.7056 40.2944,-90 90,-90 49.7056,0 90,40.2944 90,90 z"
               style="fill:none;stroke:#000000;stroke-width:180;stroke-linecap:round;stroke-linejoin:round;stroke-miterlimit:10;stroke-dasharray:none;stroke-opacity:1"
               id="path88" /><path
               d="m 11388,7617 c 0,49.7056 -40.294,90 -90,90 -49.706,0 -90,-40.2944 -90,-90 0,-49.7056 40.294,-90 90,-90 49.706,0 90,40.2944 90,90 z"
               style="fill:none;stroke:#000000;stroke-width:180;stroke-linecap:round;stroke-linejoin:round;stroke-miterlimit:10;stroke-dasharray:none;stroke-opacity:1"
               id="path90" /><path
               d="m 11478,7617 c 0,99.4112 -80.589,180 -180,180 -99.411,0 -180,-80.5888 -180,-180 0,-99.4113 80.589,-180 180,-180 99.411,0 180,80.5887 180,180 z"
               style="fill:none;stroke:#000000;stroke-width:180;stroke-linecap:round;stroke-linejoin:round;stroke-miterlimit:10;stroke-dasharray:none;stroke-opacity:1"
               id="path92" /><path
               d="m 12234,6861 c 0,99.4112 -80.589,180 -180,180 -99.411,0 -180,-80.5888 -180,-180 0,-99.4113 80.589,-180 180,-180 99.411,0 180,80.5887 180,180 z"
               style="fill:none;stroke:#000000;stroke-width:180;stroke-linecap:round;stroke-linejoin:round;stroke-miterlimit:10;stroke-dasharray:none;stroke-opacity:1"
               id="path94" /><path
               d="m 13007,8066 c 0,149.1169 -120.883,270 -270,270 -149.117,0 -270,-120.8831 -270,-270 0,-149.1169 120.883,-270 270,-270 149.117,0 270,120.8831 270,270 z"
               style="fill:none;stroke:#000000;stroke-width:180;stroke-linecap:round;stroke-linejoin:round;stroke-miterlimit:10;stroke-dasharray:none;stroke-opacity:1"
               id="path96" /><path
               d="m 13097,8066 c 0,198.8225 -161.177,360 -360,360 -198.823,0 -360,-161.1775 -360,-360 0,-198.8225 161.177,-360 360,-360 198.823,0 360,161.1775 360,360 z"
               style="fill:none;stroke:#000000;stroke-width:180;stroke-linecap:round;stroke-linejoin:round;stroke-miterlimit:10;stroke-dasharray:none;stroke-opacity:1"
               id="path98" /><path
               d="m 15977,7077 c 0,49.7056 -40.294,90 -90,90 -49.706,0 -90,-40.2944 -90,-90 0,-49.7056 40.294,-90 90,-90 49.706,0 90,40.2944 90,90 z"
               style="fill:none;stroke:#000000;stroke-width:180;stroke-linecap:round;stroke-linejoin:round;stroke-miterlimit:10;stroke-dasharray:none;stroke-opacity:1"
               id="path100" /><path
               d="m 16067,7077 c 0,99.4112 -80.589,180 -180,180 -99.411,0 -180,-80.5888 -180,-180 0,-99.4113 80.589,-180 180,-180 99.411,0 180,80.5887 180,180 z"
               style="fill:none;stroke:#000000;stroke-width:180;stroke-linecap:round;stroke-linejoin:round;stroke-miterlimit:10;stroke-dasharray:none;stroke-opacity:1"
               id="path102" /><path
               d="m 15977,7796 c 0,49.7056 -40.294,90 -90,90 -49.706,0 -90,-40.2944 -90,-90 0,-49.7056 40.294,-90 90,-90 49.706,0 90,40.2944 90,90 z"
               style="fill:none;stroke:#000000;stroke-width:180;stroke-linecap:round;stroke-linejoin:round;stroke-miterlimit:10;stroke-dasharray:none;stroke-opacity:1"
               id="path104" /><path
               d="m 16067,7796 c 0,99.4112 -80.589,180 -180,180 -99.411,0 -180,-80.5888 -180,-180 0,-99.4113 80.589,-180 180,-180 99.411,0 180,80.5887 180,180 z"
               style="fill:none;stroke:#000000;stroke-width:180;stroke-linecap:round;stroke-linejoin:round;stroke-miterlimit:10;stroke-dasharray:none;stroke-opacity:1"
               id="path106" /><path
               d="m 12938,8066 c 0,111.0092 -89.991,201 -201,201 -111.009,0 -201,-89.9908 -201,-201 0,-111.0092 89.991,-201 201,-201 111.009,0 201,89.9908 201,201 z"
               style="fill:none;stroke:#000000;stroke-width:180;stroke-linecap:round;stroke-linejoin:round;stroke-miterlimit:10;stroke-dasharray:none;stroke-opacity:1"
               id="path108" /><path
               d="m 13748,6537 c 0,111.0092 -89.991,201 -201,201 -111.009,0 -201,-89.9908 -201,-201 0,-111.0092 89.991,-201 201,-201 111.009,0 201,89.9908 201,201 z"
               style="fill:none;stroke:#000000;stroke-width:180;stroke-linecap:round;stroke-linejoin:round;stroke-miterlimit:10;stroke-dasharray:none;stroke-opacity:1"
               id="path110" /><path
               d="m 13907,6537 c 0,198.8225 -161.177,360 -360,360 -198.823,0 -360,-161.1775 -360,-360 0,-198.8225 161.177,-360 360,-360 198.823,0 360,161.1775 360,360 z"
               style="fill:none;stroke:#000000;stroke-width:180;stroke-linecap:round;stroke-linejoin:round;stroke-miterlimit:10;stroke-dasharray:none;stroke-opacity:1"
               id="path112" /><path
               d="m 13674,6537 c 0,70.1402 -56.86,127 -127,127 -70.14,0 -127,-56.8598 -127,-127 0,-70.1402 56.86,-127 127,-127 70.14,0 127,56.8598 127,127 z"
               style="fill:none;stroke:#000000;stroke-width:180;stroke-linecap:round;stroke-linejoin:round;stroke-miterlimit:10;stroke-dasharray:none;stroke-opacity:1"
               id="path114" /><path
               d="m 12108,6897 c 0,49.7056 -40.294,90 -90,90 -49.706,0 -90,-40.2944 -90,-90 0,-49.7056 40.294,-90 90,-90 49.706,0 90,40.2944 90,90 z"
               style="fill:none;stroke:#000000;stroke-width:180;stroke-linecap:round;stroke-linejoin:round;stroke-miterlimit:10;stroke-dasharray:none;stroke-opacity:1"
               id="path116" /><path
               d="m 12827,8066 c 0,49.7056 -40.294,90 -90,90 -49.706,0 -90,-40.2944 -90,-90 0,-49.7056 40.294,-90 90,-90 49.706,0 90,40.2944 90,90 z"
               style="fill:none;stroke:#000000;stroke-width:180;stroke-linecap:round;stroke-linejoin:round;stroke-miterlimit:10;stroke-dasharray:none;stroke-opacity:1"
               id="path118" /><path
               d="m 11294,7620 -1346,-3"
               style="fill:none;stroke:#000000;stroke-width:180;stroke-linecap:round;stroke-linejoin:round;stroke-miterlimit:10;stroke-dasharray:none;stroke-opacity:1"
               id="path120" /><path
               d="m 6438,7617 -1169,89"
               style="fill:none;stroke:#000000;stroke-width:180;stroke-linecap:round;stroke-linejoin:round;stroke-miterlimit:10;stroke-dasharray:none;stroke-opacity:1"
               id="path122" /><path
               d="M 4169.5875,7879.0681 C 4461.237,7648.5398 4748.092,7716 5051,7716 c 72.8144,-0.4159 145.3774,-5.3362 218,-10"
               style="fill:none;stroke:#000000;stroke-width:180;stroke-linecap:round;stroke-linejoin:round;stroke-miterlimit:10;stroke-dasharray:none;stroke-opacity:1"
               id="path124" /><path
               d="m 12057,6857 1130,400"
               style="fill:none;stroke:#000000;stroke-width:180;stroke-linecap:round;stroke-linejoin:round;stroke-miterlimit:10;stroke-dasharray:none;stroke-opacity:1"
               id="path126" /><path
               d="m 13187,7257 208,70 209,66 211,62 212,56 213,51 214,47 216,42 216,37 217,31 218,27 218,22 219,17 219,11"
               style="fill:none;stroke:#000000;stroke-width:180;stroke-linecap:round;stroke-linejoin:round;stroke-miterlimit:10;stroke-dasharray:none;stroke-opacity:1"
               id="path128" /><path
               d="m 15977,7796 -90,0"
               style="fill:none;stroke:#000000;stroke-width:180;stroke-linecap:round;stroke-linejoin:round;stroke-miterlimit:10;stroke-dasharray:none;stroke-opacity:1"
               id="path130" /><path
               d="m 15887,7796 0,-179"
               style="fill:none;stroke:#000000;stroke-width:180;stroke-linecap:round;stroke-linejoin:round;stroke-miterlimit:10;stroke-dasharray:none;stroke-opacity:1"
               id="path132" /><path
               d="M 9054,6531 7428,7167"
               style="fill:none;stroke:#000000;stroke-width:180;stroke-linecap:round;stroke-linejoin:round;stroke-miterlimit:10;stroke-dasharray:none;stroke-opacity:1"
               id="path134" /><path
               d="m 7428,7167 -42,18 -41,22 -38,25 -37,28 -34,31 -32,33 -29,36 -26,38 -23,40 -20,42 -16,43 -12,45 -10,45 -5,46 -2,46 2,46 5,45"
               style="fill:none;stroke:#000000;stroke-width:180;stroke-linecap:round;stroke-linejoin:round;stroke-miterlimit:10;stroke-dasharray:none;stroke-opacity:1"
               id="path136" /><path
               d="m 7068,7796 8,38 12,38 14,36 18,34 20,33 24,31 26,29 29,26 31,23 33,21 34,18 36,14 37,11 38,8"
               style="fill:none;stroke:#000000;stroke-width:180;stroke-linecap:round;stroke-linejoin:round;stroke-miterlimit:10;stroke-dasharray:none;stroke-opacity:1"
               id="path138" /><path
               d="M 8508,8336 7428,8156"
               style="fill:none;stroke:#000000;stroke-width:180;stroke-linecap:round;stroke-linejoin:round;stroke-miterlimit:10;stroke-dasharray:none;stroke-opacity:1"
               id="path140" /><path
               d="m 8508,8336 231,37 231,32 232,26 232,21 233,16 233,10 233,5 233,-1 234,-6 233,-11 232,-17 233,-22"
               style="fill:none;stroke:#000000;stroke-width:180;stroke-linecap:round;stroke-linejoin:round;stroke-miterlimit:10;stroke-dasharray:none;stroke-opacity:1"
               id="path142" /><path
               d="m 11298,8426 134,-16 134,-19 133,-23 133,-26 132,-30 132,-32 130,-37 130,-39 128,-43 127,-46 126,-49"
               style="fill:none;stroke:#000000;stroke-width:180;stroke-linecap:round;stroke-linejoin:round;stroke-miterlimit:10;stroke-dasharray:none;stroke-opacity:1"
               id="path144" /><path
               d="m 9762,6531 24,91"
               style="fill:none;stroke:#000000;stroke-width:180;stroke-linecap:round;stroke-linejoin:round;stroke-miterlimit:10;stroke-dasharray:none;stroke-opacity:1"
               id="path146" /><path
               d="m 9786,6622 162,635"
               style="fill:none;stroke:#000000;stroke-width:180;stroke-linecap:round;stroke-linejoin:round;stroke-miterlimit:10;stroke-dasharray:none;stroke-opacity:1"
               id="path148" /><path
               d="M 15887,7257 14447,7077"
               style="fill:none;stroke:#000000;stroke-width:180;stroke-linecap:round;stroke-linejoin:round;stroke-miterlimit:10;stroke-dasharray:none;stroke-opacity:1"
               id="path150" /><path
               d="m 13547,6537 71,65 73,62 76,60 78,56 81,52 82,50 85,46 86,43 88,39 89,35 91,32"
               style="fill:none;stroke:#000000;stroke-width:180;stroke-linecap:round;stroke-linejoin:round;stroke-miterlimit:10;stroke-dasharray:none;stroke-opacity:1"
               id="path152" /><path
               d="m 13547,6537 -77,-72 -81,-69 -82,-66 -85,-63 -88,-60 -89,-57 -91,-54 -94,-50 -95,-47 -96,-44 -98,-40 -100,-36 -100,-33 -102,-29 -103,-25 -104,-22 -104,-18 -105,-14 -105,-11"
               style="fill:none;stroke:#000000;stroke-width:180;stroke-linecap:round;stroke-linejoin:round;stroke-miterlimit:10;stroke-dasharray:none;stroke-opacity:1"
               id="path154" /><path
               d="m 11748,5727 -235,-16 -234,-11 -235,-4 -234,0 -235,6 -234,12 -234,18 -234,23 -233,28 -232,34"
               style="fill:none;stroke:#000000;stroke-width:180;stroke-linecap:round;stroke-linejoin:round;stroke-miterlimit:10;stroke-dasharray:none;stroke-opacity:1"
               id="path156" /><path
               d="m 9408,5817 -879,149 -877,168 -872,186 -868,204 -864,222 -859,241"
               style="fill:none;stroke:#000000;stroke-width:180;stroke-linecap:round;stroke-linejoin:round;stroke-miterlimit:10;stroke-dasharray:none;stroke-opacity:1"
               id="path158" /><path
               d="m 4189,6987 -11,5 -10,7 -7,10 -4,11 -2,12 2,12 4,11 7,9 10,8 11,5"
               style="fill:none;stroke:#000000;stroke-width:180;stroke-linecap:round;stroke-linejoin:round;stroke-miterlimit:10;stroke-dasharray:none;stroke-opacity:1"
               id="path160" /><path
               d="m 9762,6531 -21,-77 -25,-76 -28,-76 -31,-74 -34,-72 -37,-72 -41,-69 -43,-68 -45,-66 -49,-64"
               style="fill:none;stroke:#000000;stroke-width:180;stroke-linecap:round;stroke-linejoin:round;stroke-miterlimit:10;stroke-dasharray:none;stroke-opacity:1"
               id="path164" /><path
               d="m 8868,7617 -1350,0"
               style="fill:none;stroke:#000000;stroke-width:180;stroke-linecap:round;stroke-linejoin:round;stroke-miterlimit:10;stroke-dasharray:none;stroke-opacity:1"
               id="path166" /><path
               d="m 9408,5823 0,1704"
               style="fill:none;stroke:#000000;stroke-width:180;stroke-linecap:round;stroke-linejoin:round;stroke-miterlimit:10;stroke-dasharray:none;stroke-opacity:1"
               id="path168" /><path
               d="m 8868,7976 42,6 42,2 42,-2 42,-6 41,-10 40,-13 38,-18 37,-20 35,-24 32,-27 30,-30 27,-32 24,-35 20,-37 17,-39 14,-40 9,-41 6,-41 2,-42"
               style="fill:none;stroke:#000000;stroke-width:180;stroke-linecap:round;stroke-linejoin:round;stroke-miterlimit:10;stroke-dasharray:none;stroke-opacity:1"
               id="path170" /></g></g></g></g></g></svg>